<?xml version="1.0" standalone="no"?>
<!DOCTYPE svg PUBLIC "-//W3C//DTD SVG 20010904//EN"
 "http://www.w3.org/TR/2001/REC-SVG-20010904/DTD/svg10.dtd">
<svg version="1.0" xmlns="http://www.w3.org/2000/svg"
 width="230.000000pt" height="47.000000pt" viewBox="0 0 230.000000 47.000000"
 preserveAspectRatio="xMidYMid meet">

<g transform="translate(0.000000,47.000000) scale(0.100000,-0.100000)"
fill="#000000" stroke="none">
<path d="M167 442 l-27 -28 0 -207 0 -207 958 2 c888 3 959 4 989 20 61 34 63
43 63 255 l0 193 -978 0 -978 0 -27 -28z m326 -12 c14 -11 31 -36 37 -56 18
-53 8 -148 -18 -184 l-22 -30 35 -70 35 -70 -48 0 -48 0 -27 64 c-18 40 -36
66 -48 69 -17 5 -19 -1 -19 -64 l0 -69 -40 0 -40 0 0 209 c0 158 3 211 13 214
6 3 46 6 88 6 62 1 81 -3 102 -19z m164 -7 c3 -16 18 -82 33 -148 l27 -120 17
80 c53 236 45 215 77 215 29 0 29 -1 29 -59 0 -33 -16 -128 -35 -211 -19 -83
-35 -153 -35 -156 0 -2 -24 -4 -53 -4 l-53 0 -43 193 c-24 105 -46 202 -49
215 -4 20 -1 22 37 22 36 0 41 -3 48 -27z m483 -5 c0 -2 -20 -81 -44 -175
l-44 -173 84 0 c46 0 84 -2 84 -4 0 -32 -15 -36 -117 -36 -95 0 -105 2 -101
17 3 10 24 98 49 196 40 165 45 177 66 177 13 0 23 -1 23 -2z m395 -23 c17
-16 25 -35 25 -57 0 -46 -45 -213 -65 -244 -55 -85 -189 -86 -210 -1 -7 27 39
219 61 257 42 69 141 94 189 45z m275 7 c13 -11 23 -33 27 -60 5 -41 5 -42
-22 -42 -20 0 -26 4 -21 15 8 21 -13 63 -34 70 -23 7 -61 -8 -83 -33 -23 -25
-70 -207 -63 -238 9 -34 41 -48 76 -34 32 13 51 38 68 88 l11 32 -45 0 c-47 0
-47 0 -38 24 5 12 21 16 71 16 57 0 64 -2 59 -17 -3 -10 -10 -38 -16 -63 -8
-30 -26 -59 -55 -87 -37 -38 -48 -43 -87 -43 -47 0 -79 23 -92 66 -9 30 42
229 67 260 47 60 132 83 177 46z m280 -2 c32 -32 33 -61 5 -170 -39 -153 -67
-189 -156 -198 -41 -4 -51 -1 -73 21 -18 18 -26 37 -26 59 0 46 45 213 65 244
39 61 143 86 185 44z"/>
<path d="M370 305 l0 -85 29 0 c40 0 56 24 56 85 0 61 -16 85 -56 85 l-29 0 0
-85z"/>
<path d="M1435 381 c-38 -16 -57 -50 -81 -143 -30 -118 -30 -134 1 -154 21
-14 30 -14 56 -4 42 18 57 45 85 152 29 113 29 113 4 138 -21 21 -34 23 -65
11z"/>
<path d="M1982 377 c-36 -21 -51 -50 -76 -154 -26 -107 -21 -139 20 -149 28
-7 76 18 92 48 15 30 52 179 52 212 0 14 -9 31 -22 40 -27 19 -36 19 -66 3z"/>
</g>
</svg>
